<svg width="184" height="110" viewBox="0 0 184 110" fill="none" xmlns="http://www.w3.org/2000/svg">
  <g fill="#ffffff">
    <path d="M92 4c1 0 2 .8 2 1.9v34.2a2 2 0 0 1-4 0V5.9C90 4.8 91 4 92 4Z"/>
    <path d="M92 8.7c.6 0 1.2.3 1.6.8l11.9 28.2a1.8 1.8 0 0 1-3.4 1.4L92 15.4 81.9 39a1.8 1.8 0 0 1-3.4-1.4L90.4 9.5c.4-.5 1-.8 1.6-.8Z"/>
    <path d="M62.4 14.3c.9-.5 2-.2 2.5.6l16.1 23.9a1.8 1.8 0 0 1-3 2L61.8 16.8a1.8 1.8 0 0 1 .6-2.5Z"/>
    <path d="M121.6 14.3a1.8 1.8 0 0 1 .6 2.5l-16.2 24a1.8 1.8 0 0 1-3-2L119 14.9c.5-.8 1.6-1.1 2.6-.6Z"/>
    <path d="M40.2 27.5c.6-.8 1.7-1 2.5-.4l24 17.5a1.8 1.8 0 1 1-2.1 2.9l-24-17.5c-.8-.5-1-1.7-.4-2.5Z"/>
    <path d="M143.8 27.5c.6.8.4 2-.4 2.5l-24 17.5a1.8 1.8 0 1 1-2.1-2.9l24-17.5c.8-.6 1.9-.4 2.5.4Z"/>
    <path d="M24.6 46.1c.3-1 1.3-1.5 2.2-1.2l27.3 10.2a1.8 1.8 0 1 1-1.2 3.4L25.8 48.3c-1-.3-1.5-1.3-1.2-2.2Z"/>
    <path d="M159.4 46.1c.3 1-.2 1.9-1.2 2.2l-27.1 10.2a1.8 1.8 0 1 1-1.2-3.4l27.3-10.2c1-.3 2 .2 2.2 1.2Z"/>
    <path d="M12 67.4c0-1 .8-1.8 1.8-1.8h33.4a1.8 1.8 0 1 1 0 3.6H13.8c-1 0-1.8-.8-1.8-1.8Z"/>
    <path d="M136.8 67.4c0-1 .8-1.8 1.8-1.8H172a1.8 1.8 0 1 1 0 3.6h-33.4c-1 0-1.8-.8-1.8-1.8Z"/>
    <path d="M50 73.6h84c1.2 0 2.1 1 2.1 2.1v2.8H47.9v-2.8c0-1.2 1-2.1 2.1-2.1Z"/>
    <path d="M43.9 82.4H140c1.3 0 2.4 1.1 2.4 2.4v2H41.5v-2c0-1.3 1.1-2.4 2.4-2.4Z"/>
  </g>
  <text x="92" y="97" text-anchor="middle" fill="#ffffff" font-size="19" font-family="Arial, Helvetica, sans-serif" font-weight="700">THE STAR CITY</text>
  <text x="92" y="107" text-anchor="middle" fill="#ffffff" font-size="6" font-family="Arial, Helvetica, sans-serif">MO LOI THINH VUONG, KET NOI TINH HOA</text>
</svg>
